<?xml version="1.0" standalone="no"?>
<!DOCTYPE svg PUBLIC "-//W3C//DTD SVG 1.1//EN" "http://www.w3.org/Graphics/SVG/1.1/DTD/svg11.dtd" >
<!--
2013-9-30: Created.
-->
<svg>
<metadata>
Created by iconfont
</metadata>
<defs>

<font id="iconfont" horiz-adv-x="1024" >
  <font-face
    font-family="iconfont"
    font-weight="500"
    font-stretch="normal"
    units-per-em="1024"
    ascent="896"
    descent="-128"
  />
    <missing-glyph />
    
    <glyph glyph-name="htmal5icon22" unicode="&#58938;" d="M365.624235 203.515393 165.695786 403.443841 99.05297 336.801025 365.624235 70.22976 936.850128 641.45463 870.207311 708.097446Z"  horiz-adv-x="1024" />

    
    <glyph glyph-name="dian" unicode="&#58888;" d="M512 576a192.064 192.064 0 0 0 0-384 192 192 0 0 0 0 384z"  horiz-adv-x="1024" />

    
    <glyph glyph-name="photo_fuzhi" unicode="&#58882;" d="M784 129.6H240c-40 0-72 32-72 72v304c0 40 32 72 72 72h544c40 0 72-32 72-72v-304c0-40-32-72-72-72zM240 544c-22.4 0-40-17.6-40-40v-304c0-22.4 17.6-40 40-40h544c22.4 0 40 17.6 40 40v304c0 22.4-17.6 40-40 40H240zM316.8 587.2h-48c-6.4 0-12.8 6.4-12.8 12.8v6.4c0 6.4 6.4 12.8 12.8 12.8h48c6.4 0 12.8-6.4 12.8-12.8v-6.4c0-6.4-6.4-12.8-12.8-12.8zM512 200c-84.8 0-152 68.8-152 152 0 84.8 68.8 152 152 152 84.8 0 152-68.8 152-152s-67.2-152-152-152z m0 273.6c-67.2 0-120-54.4-120-120s54.4-120 120-120 120 54.4 120 120-52.8 120-120 120zM683.2 481.6m-22.4 0a22.4 22.4 0 1 1 44.8 0 22.4 22.4 0 1 1-44.8 0ZM699.2 544H324.8l49.6 70.4c9.6 14.4 27.2 24 44.8 24h182.4c17.6 0 35.2-8 44.8-24l52.8-70.4z m-312 32h251.2l-14.4 20.8c-4.8 6.4-11.2 9.6-19.2 9.6H420.8c-8 0-14.4-3.2-19.2-9.6l-14.4-20.8z"  horiz-adv-x="1024" />

    
    <glyph glyph-name="bianji" unicode="&#58884;" d="M1136.783217 475.300699c-8.951049 0-17.902098-7.160839-17.902098-17.902098v-313.286713c0-12.531469-10.741259-21.482517-23.272727-21.482517h-456.503497c-12.531469 0-23.272727 10.741259-23.272727 21.482517V605.986014c0 12.531469 10.741259 21.482517 23.272727 21.482517h313.286713c8.951049 0 17.902098 7.160839 17.902098 17.902098 0 8.951049-7.160839 17.902098-17.902098 17.902098h-315.076923c-30.433566 0-55.496503-25.062937-55.496503-53.706293v-465.454546c0-30.433566 25.062937-53.706294 55.496503-53.706294h461.874126c30.433566 0 55.496503 25.062937 55.496504 53.706294v313.286713c0 10.741259-7.160839 17.902098-17.902098 17.902098zM787.692308 271.216783c-5.370629 0-8.951049 1.79021-12.531469 5.37063-7.160839 7.160839-7.160839 17.902098 0 25.062937l361.622378 359.832167c7.160839 7.160839 17.902098 7.160839 25.062937 0s7.160839-17.902098 0-25.062937l-361.622378-359.832167c-3.58042-3.58042-7.160839-5.370629-12.531468-5.37063z"  horiz-adv-x="1754" />

    
    <glyph glyph-name="frown" unicode="&#59262;" d="M336 475m-48 0a48 48 0 1 1 96 0 48 48 0 1 1-96 0ZM688 475m-48 0a48 48 0 1 1 96 0 48 48 0 1 1-96 0ZM512 832C264.6 832 64 631.4 64 384s200.6-448 448-448 448 200.6 448 448S759.4 832 512 832z m263-711c-34.2-34.2-74-61-118.3-79.8C611 21.8 562.3 12 512 12c-50.3 0-99 9.8-144.8 29.2-44.3 18.7-84.1 45.6-118.3 79.8-34.2 34.2-61 74-79.8 118.3C149.8 285 140 333.7 140 384s9.8 99 29.2 144.8c18.7 44.3 45.6 84.1 79.8 118.3 34.2 34.2 74 61 118.3 79.8C413 746.2 461.7 756 512 756c50.3 0 99-9.8 144.8-29.2 44.3-18.7 84.1-45.6 118.3-79.8 34.2-34.2 61-74 79.8-118.3C874.2 483 884 434.3 884 384s-9.8-99-29.2-144.8c-18.7-44.3-45.6-84.1-79.8-118.2zM512 363c-85.5 0-155.6-67.3-160-151.6-0.2-4.6 3.4-8.4 8-8.4h48.1c4.2 0 7.8 3.2 8.1 7.4C420 259.9 461.5 299 512 299s92.1-39.1 95.8-88.6c0.3-4.2 3.9-7.4 8.1-7.4H664c4.6 0 8.2 3.8 8 8.4-4.4 84.3-74.5 151.6-160 151.6z"  horiz-adv-x="1024" />

    
    <glyph glyph-name="caidan" unicode="&#58885;" d="M672.6300355 568.30684419H295.01849348C278.23575825 568.30684419 266.48784362 578.37648532 266.48784362 590.12439996V645.50742613C266.48784362 657.25534076 279.91403179 667.32498189 295.01849348 667.32498189h377.61154202c16.78273521 0 28.53064985-10.06964111 28.53064984-21.81755576v-55.38302617c0-11.74791464-13.42618817-21.81755576-28.53064984-21.81755577z m-125.87051401-436.35111523H284.94885235C273.20093771 131.95572896 264.80957011 142.02537008000002 264.80957011 153.77328472v55.38302616c0 11.74791464 8.3913676 21.81755576 20.13928224 21.81755578h261.81066915c11.74791464 0 20.13928224-10.06964111 20.13928222-21.81755578v-55.38302615c0-11.74791464-8.3913676-21.81755576-20.13928223-21.81755577z m292.01959251 218.17555762H295.01849348c-16.78273521 0-30.20892337 10.06964111-30.20892337 21.81755576v55.38302616c0 11.74791464 13.42618817 21.81755576 30.20892337 21.81755577h543.76062052c16.78273521 0 30.20892337-10.06964111 30.20892336-21.81755577v-55.38302616c0-11.74791464-13.42618817-21.81755576-30.20892336-21.81755576z"  horiz-adv-x="1152" />

    
    <glyph glyph-name="cart" unicode="&#58886;" d="M464.31783636 106.89473642999997c-61.57894747 21.31578985-120.78947373-37.89473643-99.47368388-99.4736839 7.10526357-21.31578985 26.05263135-40.26315762 47.36842031-47.36842118 61.57894747-21.31578985 120.78947373 37.89473643 99.47368477 99.47368477-7.10526357 21.31578985-26.05263135 40.26315762-47.3684212 47.36842031zM904.84415248 106.89473642999997c-61.57894747 21.31578985-120.78947373-37.89473643-99.47368477-99.4736839 7.10526357-21.31578985 26.05263135-40.26315762 47.36842119-47.36842118 61.57894747-21.31578985 120.78947373 37.89473643 99.47368389 99.47368477-7.10526357 21.31578985-26.05263135 40.26315762-47.36842031 47.36842031zM1046.94941517 741.6315788100001H274.84415248L234.58099397 822.15789492C229.84415248 829.26315761 222.7388889 834 213.26520501 834H66.42309906C40.37046771 834 21.42309906 812.68421017 21.42309906 786.63157881s21.31578985-47.36842119 47.36842119-47.3684212h71.05263223l161.05263134-495c7.10526357-18.94736865 23.68421015-33.15789492 45-33.15789404h585c33.15789492 0 61.57894747 23.68421015 68.68421015 54.47368389l97.10526359 414.47368389c4.73684238 33.15789492-18.94736865 61.57894747-49.73684239 61.57894746z"  horiz-adv-x="1121" />

    
    <glyph glyph-name="order" unicode="&#58887;" d="M109.36842119 834h805.26315762c26.05263135 0 47.36842119-21.31578984 47.36842119-47.36842119v-805.26315762c0-26.05263135-21.31578984-47.36842119-47.36842119-47.36842119H109.36842119c-26.05263135 0-47.36842119 21.31578984-47.36842119 47.36842119V786.63157881C62 812.68421016 83.31578984 834 109.36842119 834z m189.47368389-236.84210508c-14.21052627 0-23.68421016-9.47368388-23.68421016-23.68421104v-71.05263135c0-14.21052627 9.47368388-23.68421016 23.68421016-23.68421015h450c14.21052627 0 23.68421016 9.47368388 23.68421104 23.68421015v71.05263135c0 14.21052627-9.47368388 23.68421016-23.68421104 23.68421104H298.84210508z m0-284.21052627c-14.21052627 0-23.68421016-9.47368388-23.68421016-23.68421104v-71.05263134c0-14.21052627 9.47368388-23.68421016 23.68421016-23.68421015h213.15789492c14.21052627 0 23.68421016 9.47368388 23.68421016 23.68421015v71.05263134c0 14.21052627-9.47368388 23.68421016-23.68421016 23.68421104h-213.15789492z"  horiz-adv-x="1024" />

    
    <glyph glyph-name="shanchu" unicode="&#58889;" d="M351.118222 384L31.175111 703.886222C7.964444 727.210667 3.470222 760.433778 21.219556 778.24L117.76 874.780444c17.806222 17.749333 51.086222 13.312 74.353778-9.955555L512 544.881778 831.886222 864.824889c23.324444 23.267556 56.547556 27.704889 74.353778 9.955555l96.540444-96.540444c17.749333-17.806222 13.312-51.086222-9.955555-74.353778L672.881778 384l319.943111-319.886222c23.267556-23.324444 27.704889-56.547556 9.955555-74.353778l-96.540444-96.540444c-17.806222-17.749333-51.086222-13.312-74.353778 9.955555L512 223.118222l-319.886222-319.943111c-23.324444-23.267556-56.547556-27.704889-74.353778-9.955555L21.219556-10.24c-17.749333 17.806222-13.312 51.086222 9.955555 74.353778L351.118222 384z"  horiz-adv-x="1024" />

    
    <glyph glyph-name="shangsanjiao" unicode="&#58890;" d="M670.240531 902.52673866l-651.622738-843.386002a88.620692 88.620692 0 0 1 18.617792-126.414811c16.104391-11.729209 35.746162-18.059259 55.853378-18.059259h1303.245477c51.385107 0 93.088963 40.493699 93.088963 90.296294 0 19.548682-6.516227 38.63192-18.617793 54.270865L819.182872 902.52673866a94.950742 94.950742 0 0 1-148.942341 0z"  horiz-adv-x="1489" />

    
    <glyph glyph-name="sousuo" unicode="&#58891;" d="M407.441297 210.307459a268.454054 268.454054 0 0 0-191.958486 80.287136c-105.859459 106.911135-105.859459 280.880432 0 387.763891a268.371027 268.371027 0 0 0 191.958486 80.314811c72.51027 0 140.675459-28.505946 191.958487-80.314811 105.859459-106.883459 105.859459-280.852757 0-387.736216a268.454054 268.454054 0 0 0-191.958487-80.314811m420.974703 4.206703a15.027892 15.027892 0 0 1-10.848865 4.234379c-1.549838 0-3.127351-0.691892-4.704865-1.079352-1.577514-0.055351-2.490811-0.055351-3.597838-0.055351a132.372757 132.372757 0 0 0-15.719783 0.83027 193.868108 193.868108 0 0 0-51.449081 13.035243l-3.016649 1.273081c-2.380108 0.996324-4.870919 2.214054-7.306378 3.321082 121.357838 161.349189 109.568 392.164324-36.255136 539.398918A404.120216 404.120216 0 0 1 407.468973 896a404.203243 404.203243 0 0 1-288.103784-120.527568c-159.135135-160.712649-159.135135-421.279135 0-581.964108a403.456 403.456 0 0 1 534.140541-36.531892c0.581189-1.383784 1.21773-2.712216 1.798919-4.068324l2.214054-5.341405 1.743567-4.566487 1.826595-5.175351 1.411459-4.262054a206.128432 206.128432 0 0 0 3.819244-13.837838l0.857946-3.680865c0.359784-1.549838 0.664216-3.044324 0.940972-4.538811a100.822486 100.822486 0 0 0 1.328433-7.583135c0.664216-4.28973 0.774919-5.535135 0.913297-6.78054 0.470486-3.929946 0.553514-5.036973 0.608865-6.171676 0.276757-3.238054 0.276757-4.151351 0.359784-5.12l0.138378-4.28973v-3.321081l-0.110702-3.26573c-1.300757-5.922595-0.442811-11.762162 3.431783-15.664432l167.908325-169.568865c6.808216-6.863568 16.162595-10.184649 26.596324-10.184649 16.854486 0 36.393514 8.634811 52.307027 24.686703l60.360649 60.969514c25.766054 26.015135 32.186811 61.716757 14.391351 79.705946l-167.908324 169.59654z"  horiz-adv-x="1024" />

    
    <glyph glyph-name="xiajiantou" unicode="&#58893;" d="M750.934187-79.61599966000006l597.333333 796.416A85.333333 85.333333 0 0 1 1280.000853 853.33333334H85.334187a85.333333 85.333333 0 0 1-68.266667-136.533333l597.333333-796.416a85.333333 85.333333 0 0 1 136.533334 0z"  horiz-adv-x="1365" />

    
    <glyph glyph-name="yuyin" unicode="&#58896;" d="M500.093023 169.674419c111.925581 0 202.418605 88.111628 202.418605 197.655814V638.809302c0 109.544186-90.493023 197.655814-202.418605 197.655814S297.674419 745.972093 297.674419 638.809302v-271.479069c0-109.544186 90.493023-197.655814 202.418604-197.655814M790.623256 407.813953c-16.669767 0-30.95814-14.288372-30.95814-30.958139 0-140.502326-116.688372-254.809302-259.572093-254.809302S240.52093 236.353488 240.52093 376.855814c0 16.669767-14.288372 30.95814-30.958139 30.958139-16.669767 0-30.95814-14.288372-30.95814-30.958139C178.604651 214.92093 304.818605 79.181395 469.134884 62.511628v-92.874419H333.395349c-16.669767 0-30.95814-14.288372-30.95814-30.958139 0-16.669767 14.288372-30.95814 30.95814-30.95814h331.013953c16.669767 0 30.95814 14.288372 30.95814 30.95814 0 16.669767-14.288372 30.95814-30.95814 30.958139h-135.739535V62.511628c164.316279 16.669767 290.530233 152.409302 290.530233 314.344186 2.381395 16.669767-11.906977 30.95814-28.576744 30.958139"  horiz-adv-x="1024" />

    
    <glyph glyph-name="ctylogo" unicode="&#58897;" d="M512 384m-497.777778 0a497.777778 497.777778 0 1 1 995.555556 0 497.777778 497.777778 0 1 1-995.555556 0ZM512-128c-282.311111 0-512 229.688889-512 512S229.688889 896 512 896s512-229.688889 512-512-229.688889-512-512-512zM512 867.555556C245.333333 867.555556 28.444444 650.666667 28.444444 384s216.888889-483.555556 483.555556-483.555556 483.555556 216.888889 483.555556 483.555556S778.666667 867.555556 512 867.555556zM375.466667 511.288889h-10.666667c-125.866667 7.822222-177.777778-78.222222-172.088889-187.022222 5.688889-108.8 84.622222-150.755556 169.244445-152.888889h304.355555c71.822222 0 129.422222 55.466667 129.422222 130.844444 0 75.377778-56.177778 133.688889-137.955555 124.444445 2.133333 90.311111-73.244444 158.577778-152.888889 162.133333h-9.244445c-60.444444 0.711111-105.244444-28.444444-120.177777-77.511111zM156.444444 206.222222l9.955556-35.555555H433.777778v35.555555zM307.911111 301.511111c0-71.822222 59.022222-130.844444 132.977778-130.844444 73.955556 0 133.688889 58.311111 133.688889 130.844444 0 71.822222-59.733333 130.844444-133.688889 130.844445-73.955556-0.711111-132.977778-59.022222-132.977778-130.844445z m41.244445 2.133333c0 50.488889 41.955556 91.022222 93.866666 91.022223 51.911111 0 93.866667-40.533333 93.866667-91.022223 0-50.488889-41.955556-91.022222-93.866667-91.022222-51.911111 0-93.866667 40.533333-93.866666 91.022222zM408.177778 265.955556h80.355555V346.311111H408.177778zM100.977778 425.244444l9.955555-34.133333H320c9.244444 12.8 20.622222 24.177778 33.422222 34.133333H100.977778zM115.2 354.844444l9.955556-34.133333h164.977777c0.711111 12.088889 3.555556 23.466667 7.822223 34.133333H115.2zM136.533333 278.755556l9.955556-34.133334h157.866667c-4.977778 10.666667-8.533333 22.044444-10.666667 34.133334H136.533333zM349.155556 549.688889c-71.822222 0-136.533333-39.111111-169.955556-100.977778-5.688889-10.666667-9.955556-21.333333-13.511111-32.711111l36.977778-11.377778c2.844444 9.244444 6.4 17.777778 10.666666 26.311111 26.311111 49.066667 78.222222 80.355556 135.822223 80.355556h9.955555l13.511111-0.711111 5.688889 12.088889c25.6 56.177778 82.488889 93.155556 145.777778 93.155555 83.2 0 152.888889-63.288889 160-144.355555l1.422222-17.066667H704c68.266667 0 124.444444-54.755556 124.444444-122.311111S772.977778 209.777778 704 209.777778H344.888889v-38.4H704c89.6 0 162.844444 71.822222 162.844444 160 0 82.488889-64 150.755556-145.777777 159.288889-16.355556 92.444444-98.844444 162.844444-196.266667 162.844444-74.666667 0-141.511111-41.244444-175.644444-103.822222z"  horiz-adv-x="1024" />

    
    <glyph glyph-name="wechat--" unicode="&#58898;" d="M533.277223 384.269332m-377.064703 0a377.064703 377.064703 0 1 1 754.129405 0 377.064703 377.064703 0 1 1-754.129405 0ZM614.615466 457.527617c5.386639 0 10.234613-0.538664 15.621252-1.077328-14.00526 65.178327-84.031562 113.119411-163.753814 113.119411C377.064703 569.5697 304.345082 509.239348 304.345082 432.749079c0-44.170437 24.239874-80.799579 64.639663-108.8101l-16.159916-48.479747L409.384534 303.469753c20.469227-3.770647 36.629143-8.079958 56.559706-8.079958 4.847975 0 10.234613 0 15.082588 0.538664-3.231983 10.773277-4.847975 22.623882-4.847975 33.935823 0.538664 70.564966 61.40768 127.663335 138.436613 127.663335z m-87.263546 43.631773c12.389269 0 20.469227-8.079958 20.469227-19.930563s-8.079958-19.930563-20.469227-19.930563-24.239874 8.079958-24.239874 19.930563 11.850605 19.930563 24.239874 19.930563z m-113.658075-40.39979c-12.389269 0-24.239874 8.079958-24.239873 19.930563 0 12.389269 12.389269 19.930563 24.239873 19.930563s20.469227-8.079958 20.469227-19.930563-8.079958-19.930563-20.469227-19.930563z m348.515518-129.279326c0 64.639663-64.639663 116.890058-137.897948 116.890057-77.028932 0-137.897948-52.789058-137.897948-116.890057 0-64.639663 60.869016-116.890058 137.897948-116.890058 16.159916 0 32.319832 4.309311 48.479748 8.079958l44.7091-24.239874-11.850605 40.399789c32.319832 24.239874 56.559705 56.559705 56.559705 92.650185z m-182.068385 20.469226c-8.079958 0-16.159916 8.079958-16.159915 16.159916s8.079958 16.159916 16.159915 16.159916c12.389269 0 20.469227-8.079958 20.469227-16.159916-0.538664-8.079958-8.618622-16.159916-20.469227-16.159916z m88.879538 0c-8.079958 0-16.159916 8.079958-16.159916 16.159916s8.079958 16.159916 16.159916 16.159916c12.389269 0 20.469227-8.079958 20.469226-16.159916s-8.079958-16.159916-20.469226-16.159916z"  horiz-adv-x="1066" />

    
    <glyph glyph-name="shouquan-shuangxiangjiantou" unicode="&#58899;" d="M1405.868878 583.772992L1177.764146 811.90467a26.946808 26.946808 0 0 0 0 38.102787L1215.866933 888.083297a26.946808 26.946808 0 0 0 38.129734 0l304.849241-304.876188A26.946808 26.946808 0 0 0 1562.914876 550.305056v-47.372489a26.946808 26.946808 0 0 0-26.946808-26.946808H26.946808a26.946808 26.946808 0 0 0-26.946808 26.946808v53.893617a26.946808 26.946808 0 0 0 26.946808 26.946808h1378.92207z m-1244.969486-377.255315l228.077785-228.077785a26.946808 26.946808 0 0 0 0-38.102786l-38.102787-38.129734a26.946808 26.946808 0 0 0-38.102787 0L7.895415 207.08356a26.946808 26.946808 0 0 0-4.042021 32.902053v47.372489a26.946808 26.946808 0 0 0 26.946808 26.946808h1509.02126a26.946808 26.946808 0 0 0 26.946808-26.946808v-53.893617a26.946808 26.946808 0 0 0-26.946808-26.946808H160.872445z"  horiz-adv-x="1589" />

    
    <glyph glyph-name="xuanzhong" unicode="&#58900;" d="M512-128C230.4-128 0 102.4 0 384S230.4 896 512 896s512-230.4 512-512-230.4-512-512-512z m0 981.333333C253.866667 853.333333 42.666667 642.133333 42.666667 384s211.2-469.333333 469.333333-469.333333 469.333333 211.2 469.333333 469.333333S770.133333 853.333333 512 853.333333zM512-128C230.4-128 0 102.4 0 384S230.4 896 512 896s512-230.4 512-512-230.4-512-512-512z m0 981.333333C253.866667 853.333333 42.666667 642.133333 42.666667 384s211.2-469.333333 469.333333-469.333333 469.333333 211.2 469.333333 469.333333S770.133333 853.333333 512 853.333333zM418.133333 228.266667L765.866667 576c8.533333 8.533333 21.333333 8.533333 29.866666 0 8.533333-8.533333 8.533333-21.333333 0-29.866667l-362.666666-362.666666c-8.533333-8.533333-21.333333-8.533333-29.866667 0l-196.266667 196.266666c-8.533333 8.533333-8.533333 21.333333 0 29.866667s21.333333 8.533333 29.866667 0l181.333333-181.333333z"  horiz-adv-x="1024" />

    
    <glyph glyph-name="xuanzekuang" unicode="&#58901;" d="M512-128C230.4-128 0 102.4 0 384S230.4 896 512 896s512-230.4 512-512-230.4-512-512-512z m0 981.333333C253.866667 853.333333 42.666667 642.133333 42.666667 384s211.2-469.333333 469.333333-469.333333 469.333333 211.2 469.333333 469.333333S770.133333 853.333333 512 853.333333z"  horiz-adv-x="1024" />

    
    <glyph glyph-name="diandian" unicode="&#58902;" d="M3258.63375361 384m-116.04042699 0a116.04042698 116.04042698 0 1 1 232.08085397 0 116.04042698 116.04042698 0 1 1-232.08085397 0ZM3606.75503455 384m-116.04042697 0a116.04042698 116.04042698 0 1 1 232.08085397 0 116.04042698 116.04042698 0 1 1-232.08085397 0ZM3954.87631551 384m-116.04042699 0a116.04042698 116.04042698 0 1 1 232.08085398 0 116.04042698 116.04042698 0 1 1-232.08085398 0Z"  horiz-adv-x="4096" />

    
    <glyph glyph-name="shangchuanyingyezhizhao" unicode="&#58913;" d="M460.8 332.8H17.066667a17.066667 17.066667 0 0 0-17.066667 17.066667v68.266666a17.066667 17.066667 0 0 0 17.066667 17.066667h443.733333V878.933333a17.066667 17.066667 0 0 0 17.066667 17.066667h68.266666a17.066667 17.066667 0 0 0 17.066667-17.066667v-443.733333h443.733333a17.066667 17.066667 0 0 0 17.066667-17.066667v-68.266666a17.066667 17.066667 0 0 0-17.066667-17.066667H563.2v-443.733333a17.066667 17.066667 0 0 0-17.066667-17.066667h-68.266666a17.066667 17.066667 0 0 0-17.066667 17.066667V332.8z"  horiz-adv-x="1024" />

    
    <glyph glyph-name="dingdan" unicode="&#58914;" d="M843.63636333 725.333333c9.309091 0 15.515152-6.206061 15.515152-15.515151v-651.636364c0-9.309091-6.206061-15.515152-15.515152-15.515151H160.96969733c-9.309091 0-15.515152 6.206061-15.515152 15.515151V709.818182c0 9.309091 6.206061 15.515152 15.515152 15.515151h682.666666m0 46.545455H160.96969733c-34.133333 0-62.060606-27.927273-62.060606-62.060606v-651.636364c0-34.133333 27.927273-62.060606 62.060606-62.060606h682.666666c34.133333 0 62.060606 27.927273 62.060606 62.060606V709.818182c0 34.133333-27.927273 62.060606-62.060606 62.060606zM676.07272733 489.50303h-387.878788c-12.412121 0-23.272727 10.860606-23.272727 23.272728s10.860606 23.272727 23.272727 23.272727h387.878788c12.412121 0 23.272727-10.860606 23.272727-23.272727s-10.860606-23.272727-23.272727-23.272728zM582.98181833 273.84242400000005h-294.787879c-12.412121 0-23.272727 10.860606-23.272727 23.272728s10.860606 23.272727 23.272727 23.272727h294.787879c12.412121 0 23.272727-10.860606 23.272727-23.272727s-10.860606-23.272727-23.272727-23.272728z"  horiz-adv-x="1024" />

    
    <glyph glyph-name="zichan" unicode="&#58915;" d="M682.666667 368.484848H341.333333c-12.412121 0-23.272727 10.860606-23.272727 23.272728S328.921212 415.030303 341.333333 415.030303h341.333334c12.412121 0 23.272727-10.860606 23.272727-23.272727S695.078788 368.484848 682.666667 368.484848zM682.666667 244.363636H341.333333c-12.412121 0-23.272727 10.860606-23.272727 23.272728S328.921212 290.909091 341.333333 290.909091h341.333334c12.412121 0 23.272727-10.860606 23.272727-23.272727S695.078788 244.363636 682.666667 244.363636zM512 120.242424c-12.412121 0-23.272727 10.860606-23.272727 23.272728v248.242424c0 12.412121 10.860606 23.272727 23.272727 23.272727s23.272727-10.860606 23.272727-23.272727v-248.242424c0-12.412121-10.860606-23.272727-23.272727-23.272728zM512 351.418182c-7.757576 0-13.963636 3.10303-18.618182 10.860606l-155.151515 226.521212c-7.757576 10.860606-4.654545 24.824242 6.206061 32.581818s24.824242 4.654545 32.581818-6.20606l155.151515-226.521213c7.757576-10.860606 4.654545-24.824242-6.206061-32.581818-4.654545-3.10303-9.309091-4.654545-13.963636-4.654545zM512 351.418182c-4.654545 0-9.309091 1.551515-12.412121 4.654545-10.860606 7.757576-13.963636 21.721212-6.206061 32.581818l155.151515 226.521213c7.757576 10.860606 21.721212 13.963636 32.581819 6.20606 10.860606-7.757576 13.963636-21.721212 6.20606-32.581818l-155.151515-226.521212c-6.206061-7.757576-12.412121-10.860606-20.169697-10.860606zM512-73.69697C259.10303-73.69697 54.30303 131.10303 54.30303 384S259.10303 841.69697 512 841.69697 969.69697 636.89697 969.69697 384 764.89697-73.69697 512-73.69697z m0 868.848485C285.478788 795.151515 100.848485 610.521212 100.848485 384S285.478788-27.151515 512-27.151515 923.151515 157.478788 923.151515 384 738.521212 795.151515 512 795.151515z"  horiz-adv-x="1024" />

    
    <glyph glyph-name="gouwuche" unicode="&#58916;" d="M806.787879 214.884848H300.993939c-10.860606 0-18.618182 6.206061-21.721212 17.066667L131.878788 722.230303h-108.606061c-12.412121 0-23.272727 10.860606-23.272727 23.272727s10.860606 23.272727 23.272727 23.272728h127.224243c10.860606 0 18.618182-6.206061 21.721212-17.066667l147.393939-490.278788h488.727273c12.412121 0 23.272727-10.860606 23.272727-23.272727s-12.412121-23.272727-24.824242-23.272728zM870.4 404.169697H364.606061c-12.412121 0-23.272727 10.860606-23.272728 23.272727s10.860606 23.272727 23.272728 23.272728h505.793939c12.412121 0 23.272727-10.860606 23.272727-23.272728s-10.860606-23.272727-23.272727-23.272727zM958.836364 607.418182H350.642424c-12.412121 0-23.272727 10.860606-23.272727 23.272727s10.860606 23.272727 23.272727 23.272727h608.19394c12.412121 0 23.272727-10.860606 23.272727-23.272727s-10.860606-23.272727-23.272727-23.272727zM325.818182-0.775758c-48.09697 0-86.884848 38.787879-86.884849 86.884849s38.787879 86.884848 86.884849 86.884848 86.884848-38.787879 86.884848-86.884848-38.787879-86.884848-86.884848-86.884849z m0 127.224243c-21.721212 0-40.339394-18.618182-40.339394-40.339394s18.618182-40.339394 40.339394-40.339394 40.339394 18.618182 40.339394 40.339394-18.618182 40.339394-40.339394 40.339394zM730.763636-0.775758c-48.09697 0-86.884848 38.787879-86.884848 86.884849s38.787879 86.884848 86.884848 86.884848 86.884848-38.787879 86.884849-86.884848-38.787879-86.884848-86.884849-86.884849z m0 127.224243c-21.721212 0-40.339394-18.618182-40.339394-40.339394s18.618182-40.339394 40.339394-40.339394 40.339394 18.618182 40.339394 40.339394-18.618182 40.339394-40.339394 40.339394z"  horiz-adv-x="1024" />

    
    <glyph glyph-name="qiyexinxi" unicode="&#58917;" d="M596.44802699 732.26086839v-697.91757216h-474.58394969v697.91757216h474.58394969m0 41.87505431h-474.58394969c-23.72919721 0-41.87505429-18.14585709-41.87505429-41.87505431v-697.91757216c0-23.72919721 18.14585709-41.87505429 41.87505429-41.8750543h474.58394969c23.72919721 0 41.87505429 18.14585709 41.87505428 41.8750543v697.91757216c0 23.72919721-19.54169247 41.87505429-41.87505428 41.87505431zM903.53175807 439.13548829v-404.79219206h-265.2086768v404.79219206h265.2086768m13.95835235 41.87505429h-293.12538148c-15.35418636 0-27.91670333-12.56251698-27.91670195-27.91670333v-432.70889537c0-15.35418636 12.56251698-27.91670333 27.91670195-27.91670195h293.12538148c15.35418636 0 27.91670333 12.56251698 27.91670195 27.91670195v432.70889537c0 15.35418636-12.56251698 27.91670333-27.91670195 27.91670333zM973.32351571-7.5317580700000235h-921.25119604c-11.1666816 0-20.93752785 9.77084623-20.93752783 20.93752645s9.77084623 20.93752785 20.93752783 20.93752785h921.25119604c11.1666816 0 20.93752785-9.77084623 20.93752783-20.93752785s-9.77084623-20.93752785-20.93752783-20.93752645zM477.80203957 578.71900354h-237.29197486c-11.1666816 0-20.93752785 9.77084623-20.93752782 20.93752645s9.77084623 20.93752785 20.93752782 20.93752786h237.29197486c11.1666816 0 20.93752785-9.77084623 20.93752646-20.93752786s-9.77084623-20.93752785-20.93752646-20.93752645zM477.80203957 439.13548829h-237.29197486c-11.1666816 0-20.93752785 9.77084623-20.93752782 20.93752783s9.77084623 20.93752785 20.93752782 20.93752646h237.29197486c11.1666816 0 20.93752785-9.77084623 20.93752646-20.93752646s-9.77084623-20.93752785-20.93752646-20.93752783zM477.80203957 299.55197301h-237.29197486c-11.1666816 0-20.93752785 9.77084623-20.93752782 20.93752785s9.77084623 20.93752785 20.93752782 20.93752784h237.29197486c11.1666816 0 20.93752785-9.77084623 20.93752646-20.93752784s-9.77084623-20.93752785-20.93752646-20.93752785z"  horiz-adv-x="1024" />

    
    <glyph glyph-name="shouye" unicode="&#58918;" d="M519.757576 765.672727l356.848485-285.478788v-398.739394H682.666667v142.739394c0 91.539394-74.472727 167.563636-167.563637 167.563637-91.539394 0-167.563636-74.472727-167.563636-167.563637v-142.739394h-186.181818V480.193939L519.757576 765.672727m0 60.509091l-403.39394-322.715151v-468.557576h279.272728V224.193939c0 66.715152 54.30303 121.018182 121.018181 121.018182s121.018182-54.30303 121.018182-121.018182v-189.284848h287.030303V503.466667L519.757576 826.181818z"  horiz-adv-x="1024" />

    
    <glyph glyph-name="genghuanshoujihao-" unicode="&#58906;" d="M760.242424-81.454545H268.412121c-31.030303 0-57.406061 24.824242-57.40606 55.854545V793.6c0 31.030303 26.375758 55.854545 57.40606 55.854545H760.242424c31.030303 0 57.406061-24.824242 57.406061-55.854545v-820.751515c0-29.478788-26.375758-54.30303-57.406061-54.30303zM268.412121 802.909091c-6.206061 0-10.860606-4.654545-10.860606-9.309091v-820.751515c0-4.654545 4.654545-9.309091 10.860606-9.309091H760.242424c6.206061 0 10.860606 4.654545 10.860606 9.309091V793.6c0 4.654545-6.206061 9.309091-10.860606 9.309091H268.412121zM512 11.636364c-34.133333 0-62.060606 27.927273-62.060606 62.060606s27.927273 62.060606 62.060606 62.060606 62.060606-27.927273 62.060606-62.060606-27.927273-62.060606-62.060606-62.060606z m0 93.090909c-17.066667 0-31.030303-13.963636-31.030303-31.030303s13.963636-31.030303 31.030303-31.030303 31.030303 13.963636 31.030303 31.030303-13.963636 31.030303-31.030303 31.030303zM636.121212 678.787879H387.878788c-12.412121 0-23.272727 10.860606-23.272727 23.272727S375.466667 725.333333 387.878788 725.333333h248.242424c12.412121 0 23.272727-10.860606 23.272727-23.272727S648.533333 678.787879 636.121212 678.787879z"  horiz-adv-x="1024" />

    
    <glyph glyph-name="caidan-copy" unicode="&#59263;" d="M416.63003554 568.30684419H39.01849352C22.23575829 568.30684419 10.48784366 578.37648532 10.48784366 590.12439996V645.50742613C10.48784366 657.25534076 23.91403183 667.32498189 39.01849352 667.32498189h377.61154202c16.78273521 0 28.53064985-10.06964111 28.53064984-21.81755576v-55.38302617c0-11.74791464-13.42618817-21.81755576-28.53064984-21.81755577z m-125.87051401-436.35111523H28.94885239C17.20093775 131.95572896 8.80957015 142.02537008000002 8.80957015 153.77328472v55.38302616c0 11.74791464 8.3913676 21.81755576 20.13928224 21.81755578h261.81066915c11.74791464 0 20.13928224-10.06964111 20.13928222-21.81755578v-55.38302615c0-11.74791464-8.3913676-21.81755576-20.13928223-21.81755577z m292.01959251 218.17555762H39.01849352c-16.78273521 0-30.20892337 10.06964111-30.20892337 21.81755576v55.38302616c0 11.74791464 13.42618817 21.81755576 30.20892337 21.81755577h543.76062052c16.78273521 0 30.20892337-10.06964111 30.20892336-21.81755577v-55.38302616c0-11.74791464-13.42618817-21.81755576-30.20892336-21.81755576z"  horiz-adv-x="1152" />

    
    <glyph glyph-name="yunsuan-jia" unicode="&#58908;" d="M853.333333 315.733333H170.666667c-20.48 0-34.133333 13.653333-34.133334 34.133334v68.266666c0 20.48 13.653333 34.133333 34.133334 34.133334h682.666666c20.48 0 34.133333-13.653333 34.133334-34.133334v-68.266666c0-20.48-13.653333-34.133333-34.133334-34.133334zM580.266667 725.333333v-682.666666c0-20.48-13.653333-34.133333-34.133334-34.133334h-68.266666c-20.48 0-34.133333 13.653333-34.133334 34.133334V725.333333c0 20.48 13.653333 34.133333 34.133334 34.133334h68.266666c20.48 0 34.133333-13.653333 34.133334-34.133334z"  horiz-adv-x="1024" />

    
    <glyph glyph-name="yunsuan-jian" unicode="&#58909;" d="M853.333333 308.90666699999997H170.666667c-20.48 0-34.133333 13.653333-34.133334 34.133333v68.266667c0 20.48 13.653333 34.133333 34.133334 34.133333h682.666666c20.48 0 34.133333-13.653333 34.133334-34.133333v-68.266667c0-20.48-13.653333-34.133333-34.133334-34.133333z"  horiz-adv-x="1024" />

    
    <glyph glyph-name="wenhao" unicode="&#58993;" d="M512 814.592a422.4 422.4 0 1 1 422.4-422.4A422.4 422.4 0 0 1 512 814.592z m26.624-629.76a45.056 45.056 0 0 0-31.232-12.288 42.496 42.496 0 0 0-31.232 12.8 41.984 41.984 0 0 0-12.8 30.72 39.424 39.424 0 0 0 12.8 30.72 42.496 42.496 0 0 0 31.232 12.288 43.008 43.008 0 0 0 31.744-12.288 39.424 39.424 0 0 0 12.8-30.72 43.008 43.008 0 0 0-13.312-31.744z m87.04 235.52a617.472 617.472 0 0 0-51.2-47.104 93.184 93.184 0 0 1-25.088-31.232 80.896 80.896 0 0 1-9.728-39.936v-10.24H475.648v10.24a119.808 119.808 0 0 0 12.288 57.344A311.296 311.296 0 0 0 555.52 435.2l10.24 11.264a71.168 71.168 0 0 1 16.896 44.032A69.632 69.632 0 0 1 563.2 537.6a69.632 69.632 0 0 1-51.2 17.92 67.072 67.072 0 0 1-58.88-26.112 102.4 102.4 0 0 1-16.384-61.44h-61.44a140.288 140.288 0 0 0 37.888 102.4 140.8 140.8 0 0 0 104.96 38.4 135.68 135.68 0 0 0 96.256-29.184 108.032 108.032 0 0 0 36.352-86.528 116.736 116.736 0 0 0-25.088-73.216z"  horiz-adv-x="1024" />

    
    <glyph glyph-name="xunjiadan" unicode="&#58910;" d="M474.536585 396.487805h-149.853658c-14.985366 0-24.97561-9.990244-24.97561-24.97561v-24.97561c0-14.985366 9.990244-24.97561 24.97561-24.975609h149.853658v-124.878049c0-14.985366 9.990244-24.97561 24.97561-24.97561h24.97561c14.985366 0 24.97561 9.990244 24.97561 24.97561v124.878049h149.853658c14.985366 0 24.97561 9.990244 24.97561 24.975609v24.97561c0 14.985366-9.990244 24.97561-24.97561 24.97561h-149.853658v99.902439h149.853658c14.985366 0 24.97561 9.990244 24.97561 24.97561v24.975609c0 14.985366-9.990244 24.97561-24.97561 24.97561h-92.409756l104.897561 104.897561c9.990244 9.990244 9.990244 24.97561 0 34.965854l-17.482927 17.482927c-9.990244 9.990244-24.97561 9.990244-34.965853 0l-142.360976-142.360976-2.497561-2.497561-2.497561 2.497561-142.360976 142.360976c-9.990244 9.990244-24.97561 9.990244-34.965853 0l-17.482927-17.482927c-9.990244-9.990244-9.990244-24.97561 0-34.965854l104.897561-104.897561H324.682927c-14.985366 0-24.97561-9.990244-24.97561-24.97561v-24.975609c0-14.985366 9.990244-24.97561 24.97561-24.97561h149.853658v-99.902439z m199.804878-349.658537l-2.497561-2.497561-142.360975-142.360975c-9.990244-9.990244-24.97561-9.990244-34.965854 0l-142.360975 142.360975-2.497561 2.497561H74.926829c-27.473171 0-49.95122 22.478049-49.951219 49.95122V846.04878C24.97561 873.521951 47.453659 896 74.926829 896h874.146342c27.473171 0 49.95122-22.478049 49.951219-49.95122v-749.268292c0-27.473171-22.478049-49.95122-49.951219-49.95122H674.341463z"  horiz-adv-x="1024" />

    
    <glyph glyph-name="xunjiadandaohang" unicode="&#58911;" d="M584.69230742 519h136.73076943c10.38461572 0 17.30769258-6.92307685 17.30769258-17.30769258v-17.30769169c0-10.38461572-6.92307685-17.30769258-17.30769258-17.30769258h-173.07692314v-103.84615372h173.07692314c10.38461572 0 17.30769258-6.92307685 17.30769258-17.30769258v-17.30769257c0-10.38461572-6.92307685-17.30769258-17.30769258-17.3076917h-173.07692314v-121.1538463c0-10.38461572-6.92307685-17.30769258-17.30769257-17.30769257h-17.30769171c-10.38461572 0-17.30769258 6.92307685-17.30769258 17.30769257v121.1538463h-173.07692314c-10.38461572 0-17.30769258 6.92307685-17.30769257 17.3076917v17.30769257c0 10.38461572 6.92307685 17.30769258 17.30769258 17.30769258h173.07692313v103.84615372h-173.07692314c-10.38461572 0-17.30769258 6.92307685-17.30769257 17.30769258v17.30769169c0 10.38461572 6.92307685 17.30769258 17.30769258 17.30769258H460.07692315L352.76923057 626.30769258c-6.92307685 6.92307685-6.92307685 17.30769258 0 24.23076856l12.11538516 12.11538515c6.92307685 6.92307685 17.30769258 6.92307685 24.23076855 0l133.26923145-133.26923057 133.26923055 133.26923057c6.92307685 6.92307685 17.30769258 6.92307685 24.23076944 0l12.11538428-12.11538515c6.92307685-6.92307685 6.92307685-17.30769258 0-24.23076856l-107.30769258-107.30769258z m46.73076943-398.07692315H927.38461573v657.69230742H113.92307685v-657.69230742h297.69230743l109.03846201-109.03846112 110.76923056 109.03846112z m24.23076944-57.11538427l-119.42307686-119.42307685c-6.92307685-6.92307685-17.30769258-6.92307685-24.23076943 0l-119.42307685 119.42307685H96.61538427c-19.03846113 0-34.61538427 15.57692315-34.61538427 34.61538427V792.46153887c0 19.03846113 15.57692315 34.61538427 34.61538428 34.61538428h848.07692314c19.03846113 0 34.61538427-15.57692315 34.61538516-34.61538429v-694.03846201c0-19.03846113-15.57692315-34.61538427-34.61538516-34.61538427H655.65384628zM652.19230742 491.30769258H719.69230742c-5.19230742 0-8.65384628 3.46153886-8.65384628 8.65384628v-17.30769257c0 5.19230742 3.46153886 8.65384628 8.65384628 8.65384629h-67.5z m0 0h-131.53846114l8.6538463 8.65384628-8.6538463-8.65384628h131.53846114z m-17.30769169-155.76923144h86.53846112c-5.19230742 0-8.65384628 3.46153886-8.65384628 8.65384628v-17.30769169c0 5.19230742 3.46153886 8.65384628 8.65384628 8.6538454h-86.53846112z m-112.5-86.53846114v-60.57692315c0 5.19230742 3.46153886 8.65384628 8.6538454 8.6538463h-17.3076917c5.19230742 0 8.65384628-3.46153886 8.6538463-8.6538463v60.57692315z m-112.5 86.53846113h-86.53846202c5.19230742 0 8.65384628-3.46153886 8.65384629-8.6538454v17.30769169c0-5.19230742-3.46153886-8.65384628-8.65384629-8.65384629h86.53846202z m-19.03846202 155.76923145h-67.5c5.19230742 0 8.65384628-3.46153886 8.65384629-8.65384629v17.30769257c0-5.19230742-3.46153886-8.65384628-8.65384629-8.65384628H390.84615371z m32.88461572 98.65384629L370.07692315 643.61538427c3.46153886-3.46153886 3.46153886-8.65384628 0-12.11538427l12.11538427 12.11538428c-3.46153886-3.46153886-8.65384628-3.46153886-12.11538427 0l53.65384628-53.65384542z m107.3076917-88.26923145l88.26923145 88.26923145-88.26923145-88.26923145z m88.26923145 88.26923145l53.65384628 53.65384541c-3.46153886-3.46153886-8.65384628-3.46153886-12.11538515 0l12.11538515-12.11538428c-3.46153886 3.46153886-3.46153886 8.65384628 0 12.11538428l-53.65384628-53.65384541z m24.23076855-496.73076944l-121.15384541-121.15384628-121.15384629 121.15384628H87.96153886v709.61538429h865.38461485v-709.61538429H643.53846114z m-119.42307685-122.88461571l119.42307685 119.42307685H944.69230742c5.19230742 0 8.65384628 3.46153886 8.65384629 8.65384628V792.46153887c0 5.19230742-3.46153886 8.65384628-8.65384629 8.6538454H96.61538427c-5.19230742 0-8.65384628-3.46153886-8.65384541-8.65384541v-694.03846201c0-5.19230742 3.46153886-8.65384628 8.65384542-8.65384628h306.34615458l121.15384541-119.42307685z"  horiz-adv-x="1043" />

    
    <glyph glyph-name="xiaochengxukefuicon" unicode="&#58912;" d="M701.284848-41.115152h-82.230303v46.545455h82.230303c57.406061 0 103.951515 46.545455 103.951516 103.951515V539.151515c0 162.909091-130.327273 296.339394-291.684849 296.339394S221.866667 703.612121 221.866667 539.151515v-257.551515h-46.545455V540.70303C175.321212 729.987879 327.369697 883.587879 513.551515 883.587879s338.230303-153.6 338.230303-342.884849v-429.769697c0-85.333333-68.266667-152.048485-150.49697-152.048485zM907.636364 157.478788h-29.478788c-40.339394 0-72.921212 32.581818-72.921212 72.921212V425.890909c0 32.581818 26.375758 58.957576 58.957575 58.957576h41.890909c57.406061 0 102.4-46.545455 102.4-102.4v-119.466667c1.551515-58.957576-44.993939-105.50303-100.848484-105.50303z m-41.890909 279.272727c-6.206061 0-12.412121-6.206061-12.412122-12.412121v-193.939394c0-13.963636 10.860606-26.375758 26.375758-26.375758h29.478788c31.030303 0 55.854545 24.824242 55.854545 55.854546v119.466667c0 31.030303-24.824242 57.406061-55.854545 57.40606h-43.442424zM18.618182 261.430303v119.466667c0 55.854545 44.993939 102.4 102.4 102.4h41.890909c32.581818 0 58.957576-26.375758 58.957576-58.957576v-193.939394c0-40.339394-32.581818-72.921212-72.921212-72.921212H119.466667c-55.854545 0-102.4 46.545455-100.848485 103.951515z m142.739394 175.321212H117.915152c-31.030303 0-55.854545-26.375758-55.854546-57.40606V259.878788c0-31.030303 24.824242-55.854545 55.854546-55.854546h29.478787c15.515152 0 26.375758 12.412121 26.375758 26.375758V425.890909c0 6.206061-6.206061 10.860606-12.412121 10.860606zM620.606061-115.587879h-93.090909c-51.2 0-93.090909 41.890909-93.09091 93.090909s41.890909 93.090909 93.09091 93.090909h93.090909c51.2 0 93.090909-41.890909 93.090909-93.090909 0-49.648485-41.890909-93.090909-93.090909-93.090909z"  horiz-adv-x="1024" />

    


  </font>
</defs>
</svg>
